<svg xmlns="http://www.w3.org/2000/svg" shape-rendering="geometricPrecision" text-rendering="geometricPrecision" image-rendering="optimizeQuality" fill-rule="evenodd" clip-rule="evenodd" viewBox="0 0 294 511.398"><path d="M207.511 150.426h12.486v-19.229h3.352c5.212 0 9.473-4.259 9.473-9.472V36.824c0-5.211-4.261-9.47-9.473-9.47h-15.838V9.483c0-5.109-4.249-9.483-9.46-9.483h-60.069c-5.211 0-9.482 4.269-9.482 9.483v17.871h-15.837c-5.212 0-9.472 4.259-9.472 9.47v84.901c0 4.662 3.405 8.557 7.853 9.332v19.369h10.299v50.159C65.592 229.538 9.394 278.724 1.138 343.694c-8.54 67.277 31.792 131.741 93.879 157.068 64.189 26.175 146.266 3.788 173.878-64.419 18.827-46.498 3.982-79.664 14.119-112.832 3.628-11.873 15.11-21.125 9.439-32.952-4.008-8.333-14.995-10.64-22.022-2.974-5.269 5.294-10.355 11.298-15.245 17.969-12.595 17.176-13.847 22.984-20.608 41.882-33.237 92.777-112.961 70.789-125.382 21.169-9.253-36.966 28.566-77.092 54.844-100.352 12.709-11.252 26.992-21.033 42.352-29.805V167.31a9.204 9.204 0 001.119-4.375v-12.509z"/></svg>